# xmcd
#
# Track frame offsets: 
#        150
#        25979
#        46800
#        75472
#        109647
#        146880
#        160219
#        169177
#        187804
#        204933
#        228164
#        247236
#        260352
#        293022
#        316497
#
# Disc length: 4593 seconds
#
# Revision: 0
# Processed by: cddbd v1.5.2PL0 Copyright (c) Steve Scherf et al.
# Submitted via: ExactAudioCopy v0.99pb5
#
DISCID=c611ef0f
DTITLE=Janis Joplin  - Blow My Blues Away CD 8
DYEAR=1900
DGENRE=
TTITLE0=Piece Of My Heart
TTITLE1=Summertime
TTITLE2=Coo Coo
TTITLE3=Combination Of The Two
TTITLE4=Ball And Chain
TTITLE5=Down On Me
TTITLE6=Piece Of My Heart (reprise)
TTITLE7=Interview
TTITLE8=Piece Of My Heart
TTITLE9=Summertime
TTITLE10=Me
TTITLE11=Raise Your Hand
TTITLE12=Work Me Lord
TTITLE13=Stay With Me
TTITLE14=Walk Right
EXTD=
EXTT0=
EXTT1=
EXTT2=
EXTT3=
EXTT4=
EXTT5=
EXTT6=
EXTT7=
EXTT8=
EXTT9=
EXTT10=
EXTT11=
EXTT12=
EXTT13=
EXTT14=
PLAYORDER=
